# This file uses centimeters as units for non-parametric coordinates.

mtllib Asteroid1.mtl
g default
v -3.797021 -4.043156 1.007814
v -3.501786 -3.040430 1.740172
v -4.884693 -3.090929 1.120580
v 3.371042 -3.989419 1.758596
v 1.969066 -3.922994 2.532569
v 2.167595 -4.777999 1.662706
v -4.881017 -1.390721 1.152469
v -3.732712 -0.839072 1.580456
v -3.667203 -0.048949 1.038528
v 1.522482 2.462739 0.673182
v 1.487822 1.573003 1.568091
v 3.433509 -0.150920 1.065585
v -4.858716 -1.742892 -0.882482
v -3.869472 -0.579737 -1.105221
v -4.004121 -1.234469 -1.585698
v 1.837064 1.874534 -1.785375
v 2.839077 2.020565 -1.239350
v -4.881017 -3.096509 -1.075937
v -3.856606 -3.122232 -1.743865
v -3.626706 -3.702667 -1.328285
v 3.283298 -4.866936 -2.455837
v 3.014571 -3.589944 -3.097343
v 0.398105 -4.639180 -1.765081
v -0.940860 -0.138443 -2.202423
v -0.352067 -2.868250 -2.506221
v 1.048697 -1.323166 2.243810
v 4.057952 -4.588851 -2.688072
v 4.138521 -3.977179 -1.379771
v 3.980114 -2.252576 -2.236503
v 4.001089 -3.879625 -3.058906
v 2.234463 3.211586 -1.118431
v 1.601406 3.127401 -0.608409
v -0.254418 2.123571 -1.227858
v 1.532192 3.127579 -1.394063
v -0.148141 2.343782 -0.494434
v 0.748415 2.740910 -1.385989
v -4.710569 -1.693074 -1.373627
v -4.073388 -2.207723 -1.669611
v -4.726253 -3.068705 -1.509683
v -4.919862 -2.439918 -0.962830
v -3.352964 -3.589342 -1.794226
v -1.700073 -3.321584 -2.260142
v 1.276822 -3.437934 -2.842603
v 2.896298 -4.599402 -3.121880
v 2.086699 -4.841142 -2.287059
v -0.777530 -4.327260 -1.972223
v -0.765468 -1.845978 2.023097
v -2.305816 -0.245906 -1.763531
v -0.659439 -1.508726 -2.530762
v -0.522184 -4.606016 -0.730452
v 2.867888 -4.888775 -0.467032
v 3.077530 -4.722945 1.705916
v 2.885650 1.598289 0.722305
v -3.649622 -0.591120 -1.506354
v 0.257201 1.018931 -1.860485
v 2.568300 -0.914156 -2.496350
v 3.834438 -3.894742 -0.084999
v 3.523717 -0.533797 -1.750246
v 3.271001 0.737030 -0.174668
v 3.849081 -4.751588 -2.547796
v 3.766831 -3.675244 -3.119770
v 2.559689 2.160096 -1.708765
v -1.528097 1.435996 0.091412
v -1.767220 0.989735 -1.241533
v 1.689058 2.942400 -0.120988
v 2.452040 3.014366 -1.064917
v 1.357330 2.847001 -1.488626
v -4.729194 -3.583550 1.109131
v -4.934566 -3.102506 0.025511
v -4.729194 -3.408142 -1.109131
v -3.929101 -3.829519 -0.240625
v -3.629529 -3.642177 1.412127
v -0.322242 -4.514039 1.364004
v 1.921222 -4.479433 2.112696
v -0.586810 -3.701358 2.204249
v -4.729194 -3.066013 1.535193
v -3.723593 -1.786915 1.655364
v -4.729194 -1.346591 1.535194
v -4.934566 -2.242188 1.141404
v 4.257912 -3.236100 -1.895126
v 4.159481 -4.473312 -2.061404
v 4.091328 -4.456126 -3.089966
v 4.031537 -3.033788 -2.786415
v 2.989742 -3.804779 2.487915
v 3.527076 -2.234629 1.397799
v 2.958947 0.537535 1.573017
v 1.550419 0.046012 2.016644
v 2.073772 -2.408200 2.446903
v -4.726253 -0.889920 1.134642
v -3.944716 -0.389188 -0.105945
v -4.710569 -1.309957 -0.947565
v -4.919862 -1.582464 0.153063
v -3.721864 -0.328211 1.477108
v -1.201552 0.624129 1.580996
v 1.409941 2.268155 1.162432
v -0.913210 1.560128 0.871022
v 0.065207 2.447828 -0.938107
v 0.987538 3.042516 -0.648789
v 2.128062 3.098404 -0.872639
v 2.035457 3.237129 -1.281703
v -4.750025 -3.516469 0.000000
v -0.854153 -4.087014 1.823614
v -4.750025 -2.204392 1.541956
v 4.285140 -4.043131 -2.712901
v 2.922814 -1.552314 2.146321
v -4.738262 -1.089952 0.102042
v -1.220654 1.156884 1.309612
v 1.463243 3.272436 -1.123312
v -4.738262 -2.390572 -1.439913
v 0.254946 -4.241271 -2.578084
v 0.218057 -2.837369 2.353247
v -2.555189 -1.891554 -1.992326
v 1.276330 -4.830072 -0.532621
v -4.988237 -2.355577 0.102042
v -4.666700 -3.521680 1.514907
v 2.852214 -4.397551 2.240470
v -4.666700 -0.902381 1.514907
v 2.742930 1.720855 1.185578
v -4.651016 -1.357413 -1.378851
v -4.666700 -3.346272 -1.514907
v -1.966279 -4.273708 -0.962499
v 1.138086 -1.125897 -2.445269
v -1.144248 -0.534485 1.657466
v 3.784384 -1.853836 -0.403560
v 3.691116 -4.725028 -0.631712
v 3.901737 -4.656285 -3.259400
v 3.362117 -1.044590 -2.482154
v -2.040503 1.008679 -0.525823
v 0.009120 2.330209 0.117106
v 2.629624 2.523649 -0.295114
v 2.259204 2.800168 -1.392734
v -0.947371 1.320640 -1.562653
vt 0.959217 0.169902
vt 0.915788 0.096070
vt 0.837055 0.182171
vt 0.827468 0.091938
vt 0.978936 0.195696
vt 0.937965 0.116430
vt 0.885558 0.039169
vt 0.867091 0.023607
vt 0.752607 0.034115
vt 0.881602 0.237828
vt 0.656869 0.334963
vt 0.878766 0.292164
vt 0.641330 0.382772
vt 0.580363 0.289310
vt 0.447125 0.427160
vt 0.391404 0.376023
vt 0.445693 0.473770
vt 0.981718 0.231430
vt 0.993387 0.249941
vt 0.992949 0.286881
vt 0.906101 0.360596
vt 1.000000 0.344708
vt 0.912330 0.420187
vt 0.998033 0.309600
vt 0.036334 0.354616
vt 0.040253 0.323066
vt 0.008591 0.269362
vt 0.000965 0.220273
vt 0.082910 0.305199
vt 0.049437 0.231907
vt 0.025418 0.180429
vt 0.000000 0.163044
vt 0.003814 0.196950
vt 0.362305 0.511538
vt 0.432491 0.569969
vt 0.346939 0.637756
vt 0.298889 0.469790
vt 0.262982 0.567135
vt 0.309705 0.754316
vt 0.245415 0.689092
vt 0.437928 0.783266
vt 0.455343 0.697807
vt 0.507474 0.595235
vt 0.987860 0.348699
vt 0.942314 0.261697
vt 0.957168 0.224783
vt 0.889467 0.441982
vt 0.861881 0.326998
vt 0.890711 0.171435
vt 0.806567 0.244247
vt 0.904168 0.141279
vt 0.911539 0.449696
vt 0.675619 0.639957
vt 0.626540 0.653393
vt 0.684362 0.618078
vt 0.423596 0.810228
vt 0.386539 0.793674
vt 0.454520 0.580120
vt 0.438940 0.638312
vt 0.346668 0.657257
vt 0.290342 0.745979
vt 0.483842 0.652200
vt 0.364291 0.741046
vt 0.240984 0.784451
vt 0.300639 0.783481
vt 0.215822 0.781547
vt 0.224864 0.770479
vt 0.268526 0.718198
vt 0.867952 0.114142
vt 0.900104 0.087448
vt 0.861718 0.062649
vt 0.792415 0.158191
vt 0.788468 0.084781
vt 0.851864 0.015110
vt 0.758529 0.030179
vt 0.706721 0.018184
vt 0.465590 0.062867
vt 0.346098 0.065683
vt 0.534229 0.067409
vt 0.241501 0.135964
vt 0.400481 0.131825
vt 0.081016 0.175374
vt 0.097040 0.107725
vt 0.102300 0.150795
vt 0.208557 0.119403
vt 0.374960 0.103450
vt 0.657483 0.489589
vt 0.580826 0.472304
vt 0.622986 0.282992
vt 0.629901 0.143773
vt 0.481518 0.331131
vt 0.438197 0.223882
vt 0.502373 0.140823
vt 0.361445 0.205936
vt 0.235862 0.262728
vt 0.953659 0.167457
vt 0.970573 0.203671
vt 0.369888 0.461207
vt 0.313441 0.415221
vt 0.998066 0.376275
vt 0.304664 0.813935
vt 0.267629 0.780864
vt 0.864744 0.138564
vt 0.765678 0.222805
vt 0.843766 0.000000
vt 0.617280 0.090498
vt 0.264792 0.309492
vt 0.371679 0.470401
vt 0.132951 0.375401
vt 0.222858 0.602062
vt 0.685630 0.551946
vt 0.172612 0.380576
vt 0.148401 0.491751
vt 0.088241 0.487588
vt 0.160121 0.687407
vt 0.189042 0.672577
vt 0.161451 0.290820
vt 0.050986 0.172278
vt 0.007997 0.132674
vt 0.017920 0.196807
vt 0.157747 0.656929
vt 0.065135 0.397168
vt 0.646615 0.568808
vt 0.664077 0.473921
vt 0.600837 0.432483
vt 0.501103 0.698012
vt 0.326772 0.793140
vt 0.230541 0.781368
vt 0.199350 0.776622
vt 0.281194 0.682039
vt 0.197165 0.764880
vt 0.504114 0.467032
vn -0.605733 -0.787119 0.116320
vn -0.591543 -0.802450 -0.078427
vn -0.231637 -0.959471 0.160500
vn -0.301127 -0.942916 -0.142237
vn -0.980249 -0.149654 0.129287
vn -0.980105 -0.198058 -0.012939
vn -0.972666 -0.176963 -0.150348
vn -0.477426 -0.862130 -0.169697
vn -0.275810 -0.927864 -0.250992
vn -0.174758 -0.569433 0.803247
vn -0.196462 -0.712630 0.673469
vn -0.145214 -0.092153 0.985099
vn -0.179617 -0.179202 0.967277
vn -0.142597 -0.972706 0.183055
vn -0.129369 -0.729066 0.672106
vn -0.064956 -0.984290 0.164175
vn -0.069892 -0.196055 0.978099
vn -0.406692 -0.047922 0.912307
vn -0.987699 0.005919 0.156257
vn -0.368462 0.016688 0.929493
vn -0.101715 0.081187 0.991495
vn -0.367334 0.066633 0.927699
vn -0.060931 0.105967 0.992501
vn -0.981435 0.156015 0.111561
vn 0.950293 0.287173 -0.120310
vn 0.987525 0.133788 0.083035
vn 0.739373 0.279786 -0.612411
vn 0.985242 0.002996 -0.171141
vn 0.969094 -0.076632 0.234488
vn 0.876440 -0.469473 0.106994
vn 0.820317 -0.569102 -0.056597
vn 0.853367 -0.184328 -0.487636
vn 0.650338 0.184510 -0.736896
vn 0.514014 -0.013232 0.857680
vn 0.038987 0.136207 0.989913
vn 0.491166 0.181063 0.852040
vn 0.937162 -0.134899 0.321760
vn 0.944985 0.056046 0.322275
vn 0.492668 0.288590 0.820972
vn 0.954269 0.176192 0.241509
vn -0.005189 0.366452 0.930422
vn 0.008518 0.232918 0.972459
vn -0.084965 0.181680 0.979680
vn -0.738941 0.673763 0.003059
vn -0.781069 0.611579 -0.126108
vn -0.981844 0.186738 -0.033337
vn -0.564366 0.816137 0.124140
vn -0.624769 0.768951 -0.135569
vn -0.771935 0.612530 -0.170066
vn -0.615215 0.751676 -0.237683
vn -0.975132 0.178233 -0.131723
vn -0.313424 0.525739 0.790799
vn -0.293616 0.642421 0.707873
vn -0.403223 0.833555 0.377621
vn -0.125840 0.227210 0.965681
vn -0.080133 0.733885 0.674531
vn 0.038631 0.879982 0.473434
vn -0.549550 0.743794 -0.380481
vn -0.552333 0.817487 -0.163224
vn -0.388015 0.625666 -0.676746
vn -0.279075 0.955970 -0.090764
vn -0.540225 0.841191 0.023543
vn -0.371188 0.898972 0.232526
vn 0.342276 0.863733 0.369881
vn 0.019832 0.947881 0.318008
vn 0.489139 0.851515 -0.188853
vn 0.232950 0.806376 -0.543592
vn -0.101415 0.581288 -0.807354
vn -0.636940 0.124262 -0.760833
vn -0.989168 0.022670 -0.145024
vn -0.652259 0.079651 -0.753800
vn -0.247752 0.163496 -0.954928
vn -0.253252 0.065565 -0.965176
vn -0.544651 -0.008726 -0.838617
vn -0.232576 -0.012603 -0.972497
vn -0.289330 -0.608366 -0.739039
vn -0.241662 -0.890653 -0.385145
vn -0.240664 -0.450703 -0.859621
vn -0.232915 -0.064129 -0.970380
vn -0.155099 0.093411 -0.983473
vn -0.133718 0.024322 -0.990721
vn -0.084250 0.161524 -0.983266
vn -0.165165 -0.446381 -0.879469
vn 0.056755 -0.992878 -0.104750
vn -0.122096 -0.970820 -0.206403
vn -0.170047 -0.968273 -0.183115
vn -0.150042 0.151192 0.977051
vn -0.143476 0.058817 0.987904
vn -0.273032 0.258894 -0.926514
vn -0.250939 0.096396 -0.963191
vn -0.148548 0.277456 -0.949185
vn -0.125026 0.097218 -0.987379
vn -0.154884 -0.987848 -0.012952
vn -0.090070 -0.995726 0.020420
vn 0.049936 -0.998363 0.027873
vn -0.999933 0.008572 -0.007732
vn -0.288607 -0.570786 0.768706
vn 0.316102 -0.605868 0.730071
vn 0.501179 -0.828794 0.248839
vn -0.475297 0.482078 0.735998
vn 0.513392 0.553278 0.655981
vn 0.830858 0.508297 0.226515
vn -0.665523 0.501727 -0.552584
vn -0.450191 0.548796 -0.704380
vn -0.418109 -0.687976 -0.593190
vn -0.235765 -0.958681 -0.159206
vn -0.051513 0.191507 -0.980138
vn -0.083248 0.272199 -0.958633
vn -0.030649 0.219502 -0.975131
vn -0.052926 0.243025 -0.968575
vn -0.113559 0.144891 0.982909
vn 0.971977 -0.092382 0.216163
vn 0.985938 0.134162 0.099632
vn 0.953209 0.266737 -0.142281
vn 0.935788 0.318489 -0.151214
vn 0.966678 0.255821 0.009400
vn 0.607401 -0.780319 0.148880
vn 0.264982 -0.962231 -0.062424
vn -0.031873 -0.467400 -0.883471
vn 0.070352 0.198214 -0.977631
vn 0.422630 0.347054 -0.837220
vn 0.412694 0.309981 -0.856502
vn -0.537474 0.838517 0.089501
vn -0.592281 0.791442 -0.151069
vn -0.554668 0.742985 -0.374589
vn -0.355387 0.851978 0.384490
vn 0.060359 0.862593 0.502285
vn 0.784820 0.561430 0.262401
vn 0.849919 0.524028 -0.055069
vn -0.092447 0.305359 -0.947739
vn 0.261772 0.492538 -0.829989
vn -0.279760 0.446610 -0.849867
s 1
g pCube1
usemtl initialShadingGroup
f 68/1/1 101/2/2 1/3/3
f 1/3/3 101/2/2 71/4/4
f 3/5/5 69/6/6 68/1/1
f 68/1/1 69/6/6 101/2/2
f 69/6/6 18/7/7 101/2/2
f 101/2/2 18/7/7 70/8/8
f 101/2/2 70/8/8 71/4/4
f 71/4/4 70/8/8 20/9/9
f 72/10/10 102/11/11 2/12/12
f 2/12/12 102/11/11 75/13/13
f 72/10/10 1/3/3 102/11/11
f 102/11/11 1/3/3 73/14/14
f 102/11/11 73/14/14 74/15/15
f 74/15/15 73/14/14 6/16/16
f 102/11/11 74/15/15 75/13/13
f 75/13/13 74/15/15 5/17/17
f 3/5/5 76/18/18 79/19/19
f 79/19/19 76/18/18 103/20/20
f 76/18/18 2/12/12 103/20/20
f 103/20/20 2/12/12 77/21/21
f 103/20/20 77/21/21 78/22/22
f 78/22/22 77/21/21 8/23/23
f 79/19/19 103/20/20 7/24/24
f 7/24/24 103/20/20 78/22/22
f 29/25/25 80/26/26 83/27/27
f 83/27/27 80/26/26 104/28/28
f 28/29/29 81/30/30 80/26/26
f 80/26/26 81/30/30 104/28/28
f 81/30/30 27/31/31 104/28/28
f 104/28/28 27/31/31 82/32/32
f 83/27/27 104/28/28 30/33/33
f 30/33/33 104/28/28 82/32/32
f 5/17/17 84/34/34 88/35/35
f 88/35/35 84/34/34 105/36/36
f 4/37/37 85/38/38 84/34/34
f 84/34/34 85/38/38 105/36/36
f 86/39/39 105/36/36 12/40/40
f 12/40/40 105/36/36 85/38/38
f 11/41/41 87/42/42 86/39/39
f 86/39/39 87/42/42 105/36/36
f 88/35/35 105/36/36 26/43/43
f 26/43/43 105/36/36 87/42/42
f 89/44/44 106/45/45 7/24/24
f 7/24/24 106/45/45 92/46/46
f 9/47/47 90/48/48 89/44/44
f 89/44/44 90/48/48 106/45/45
f 106/45/45 90/48/48 91/49/49
f 91/49/49 90/48/48 14/50/50
f 92/46/46 106/45/45 13/51/51
f 13/51/51 106/45/45 91/49/49
f 93/52/52 107/53/53 9/47/47
f 9/47/47 107/53/53 96/54/54
f 8/23/23 94/55/55 93/52/52
f 93/52/52 94/55/55 107/53/53
f 94/55/55 11/41/41 107/53/53
f 107/53/53 11/41/41 95/56/56
f 107/53/53 95/56/56 96/54/54
f 96/54/54 95/56/56 10/57/57
f 33/58/58 97/59/59 36/60/60
f 36/60/60 97/59/59 108/61/61
f 35/62/62 98/63/63 97/59/59
f 97/59/59 98/63/63 108/61/61
f 99/64/64 108/61/61 32/65/65
f 32/65/65 108/61/61 98/63/63
f 31/66/66 100/67/67 99/64/64
f 99/64/64 100/67/67 108/61/61
f 36/60/60 108/61/61 34/68/68
f 34/68/68 108/61/61 100/67/67
f 13/51/51 37/69/69 40/70/70
f 40/70/70 37/69/69 109/71/71
f 15/72/72 38/73/73 37/69/69
f 37/69/69 38/73/73 109/71/71
f 109/71/71 38/73/73 39/74/74
f 39/74/74 38/73/73 19/75/75
f 40/70/70 109/71/71 18/7/7
f 18/7/7 109/71/71 39/74/74
f 20/9/9 41/76/76 46/77/77
f 46/77/77 41/76/76 110/78/78
f 19/75/75 42/79/79 41/76/76
f 41/76/76 42/79/79 110/78/78
f 43/80/80 110/78/78 25/81/81
f 25/81/81 110/78/78 42/79/79
f 22/82/82 44/83/83 43/80/80
f 43/80/80 44/83/83 110/78/78
f 21/84/84 45/85/85 44/83/83
f 44/83/83 45/85/85 110/78/78
f 46/77/77 110/78/78 23/86/86
f 23/86/86 110/78/78 45/85/85
f 2/12/12 75/13/13 47/87/87
f 47/87/87 75/13/13 111/88/88
f 88/35/35 111/88/88 5/17/17
f 5/17/17 111/88/88 75/13/13
f 47/87/87 111/88/88 26/43/43
f 26/43/43 111/88/88 88/35/35
f 48/89/89 112/90/90 15/72/72
f 15/72/72 112/90/90 38/73/73
f 24/91/91 49/92/92 48/89/89
f 48/89/89 49/92/92 112/90/90
f 112/90/90 49/92/92 42/79/79
f 42/79/79 49/92/92 25/81/81
f 38/73/73 112/90/90 19/75/75
f 19/75/75 112/90/90 42/79/79
f 1/3/3 50/93/93 73/14/14
f 73/14/14 50/93/93 113/94/94
f 50/93/93 23/86/86 113/94/94
f 113/94/94 23/86/86 45/85/85
f 113/94/94 45/85/85 51/95/95
f 51/95/95 45/85/85 21/84/84
f 73/14/14 113/94/94 6/16/16
f 6/16/16 113/94/94 51/95/95
f 18/7/7 69/6/6 40/70/70
f 40/70/70 69/6/6 114/96/96
f 69/6/6 3/5/5 114/96/96
f 114/96/96 3/5/5 79/19/19
f 114/96/96 79/19/19 92/46/46
f 92/46/46 79/19/19 7/24/24
f 40/70/70 114/96/96 13/51/51
f 13/51/51 114/96/96 92/46/46
f 1/3/3 72/10/10 68/1/1
f 68/1/1 72/10/10 115/97/97
f 76/18/18 115/97/97 2/12/12
f 2/12/12 115/97/97 72/10/10
f 68/1/1 115/97/97 3/5/5
f 3/5/5 115/97/97 76/18/18
f 84/34/34 116/98/98 4/37/37
f 4/37/37 116/98/98 52/99/99
f 74/15/15 116/98/98 5/17/17
f 5/17/17 116/98/98 84/34/34
f 52/99/99 116/98/98 6/16/16
f 6/16/16 116/98/98 74/15/15
f 7/24/24 78/22/22 89/44/44
f 89/44/44 78/22/22 117/100/100
f 93/52/52 117/100/100 8/23/23
f 8/23/23 117/100/100 78/22/22
f 9/47/47 89/44/44 93/52/52
f 93/52/52 89/44/44 117/100/100
f 95/56/56 118/101/101 10/57/57
f 10/57/57 118/101/101 53/102/102
f 86/39/39 118/101/101 11/41/41
f 11/41/41 118/101/101 95/56/56
f 12/40/40 53/102/102 86/39/39
f 86/39/39 53/102/102 118/101/101
f 13/51/51 91/49/49 37/69/69
f 37/69/69 91/49/49 119/103/103
f 54/104/104 119/103/103 14/50/50
f 14/50/50 119/103/103 91/49/49
f 37/69/69 119/103/103 15/72/72
f 15/72/72 119/103/103 54/104/104
f 18/7/7 39/74/74 70/8/8
f 70/8/8 39/74/74 120/105/105
f 41/76/76 120/105/105 19/75/75
f 19/75/75 120/105/105 39/74/74
f 70/8/8 120/105/105 20/9/9
f 20/9/9 120/105/105 41/76/76
f 46/77/77 121/106/106 20/9/9
f 20/9/9 121/106/106 71/4/4
f 23/86/86 50/93/93 46/77/77
f 46/77/77 50/93/93 121/106/106
f 71/4/4 121/106/106 1/3/3
f 1/3/3 121/106/106 50/93/93
f 49/92/92 122/107/107 25/81/81
f 25/81/81 122/107/107 43/80/80
f 49/92/92 24/91/91 122/107/107
f 122/107/107 24/91/91 55/108/108
f 122/107/107 55/108/108 56/109/109
f 56/109/109 55/108/108 16/110/110
f 122/107/107 56/109/109 43/80/80
f 43/80/80 56/109/109 22/82/82
f 2/12/12 47/87/87 77/21/21
f 77/21/21 47/87/87 123/111/111
f 47/87/87 26/43/43 123/111/111
f 123/111/111 26/43/43 87/42/42
f 123/111/111 87/42/42 94/55/55
f 94/55/55 87/42/42 11/41/41
f 77/21/21 123/111/111 8/23/23
f 8/23/23 123/111/111 94/55/55
f 4/37/37 57/112/112 85/38/38
f 85/38/38 57/112/112 124/113/113
f 80/26/26 124/113/113 28/29/29
f 28/29/29 124/113/113 57/112/112
f 58/114/114 124/113/113 29/25/25
f 29/25/25 124/113/113 80/26/26
f 17/115/115 59/116/116 58/114/114
f 58/114/114 59/116/116 124/113/113
f 85/38/38 124/113/113 12/40/40
f 12/40/40 124/113/113 59/116/116
f 4/37/37 52/99/99 57/112/112
f 57/112/112 52/99/99 125/117/117
f 6/16/16 51/95/95 52/99/99
f 52/99/99 51/95/95 125/117/117
f 60/118/118 125/117/117 21/84/84
f 21/84/84 125/117/117 51/95/95
f 27/31/31 81/30/30 60/118/118
f 60/118/118 81/30/30 125/117/117
f 57/112/112 125/117/117 28/29/29
f 28/29/29 125/117/117 81/30/30
f 21/84/84 44/83/83 60/118/118
f 60/118/118 44/83/83 126/119/119
f 22/82/82 61/120/120 44/83/83
f 44/83/83 61/120/120 126/119/119
f 61/120/120 30/33/33 126/119/119
f 126/119/119 30/33/33 82/32/32
f 60/118/118 126/119/119 27/31/31
f 27/31/31 126/119/119 82/32/32
f 16/110/110 62/121/121 56/109/109
f 56/109/109 62/121/121 127/122/122
f 17/115/115 58/114/114 62/121/121
f 62/121/121 58/114/114 127/122/122
f 83/27/27 127/122/122 29/25/25
f 29/25/25 127/122/122 58/114/114
f 30/33/33 61/120/120 83/27/27
f 83/27/27 61/120/120 127/122/122
f 56/109/109 127/122/122 22/82/82
f 22/82/82 127/122/122 61/120/120
f 63/123/123 128/124/124 9/47/47
f 9/47/47 128/124/124 90/48/48
f 63/123/123 35/62/62 128/124/124
f 128/124/124 35/62/62 97/59/59
f 97/59/59 33/58/58 128/124/124
f 128/124/124 33/58/58 64/125/125
f 90/48/48 128/124/124 14/50/50
f 14/50/50 128/124/124 64/125/125
f 9/47/47 96/54/54 63/123/123
f 63/123/123 96/54/54 129/126/126
f 96/54/54 10/57/57 129/126/126
f 129/126/126 10/57/57 65/127/127
f 129/126/126 65/127/127 98/63/63
f 98/63/63 65/127/127 32/65/65
f 63/123/123 129/126/126 35/62/62
f 35/62/62 129/126/126 98/63/63
f 53/102/102 130/128/128 10/57/57
f 10/57/57 130/128/128 65/127/127
f 12/40/40 59/116/116 53/102/102
f 53/102/102 59/116/116 130/128/128
f 66/129/129 130/128/128 17/115/115
f 17/115/115 130/128/128 59/116/116
f 31/66/66 99/64/64 66/129/129
f 66/129/129 99/64/64 130/128/128
f 32/65/65 65/127/127 99/64/64
f 99/64/64 65/127/127 130/128/128
f 16/110/110 67/130/130 62/121/121
f 62/121/121 67/130/130 131/131/131
f 67/130/130 34/68/68 131/131/131
f 131/131/131 34/68/68 100/67/67
f 100/67/67 31/66/66 131/131/131
f 131/131/131 31/66/66 66/129/129
f 131/131/131 66/129/129 62/121/121
f 62/121/121 66/129/129 17/115/115
f 15/72/72 54/104/104 48/89/89
f 48/89/89 54/104/104 132/132/132
f 14/50/50 64/125/125 54/104/104
f 54/104/104 64/125/125 132/132/132
f 36/60/60 132/132/132 33/58/58
f 33/58/58 132/132/132 64/125/125
f 34/68/68 67/130/130 36/60/60
f 36/60/60 67/130/130 132/132/132
f 16/110/110 55/108/108 67/130/130
f 67/130/130 55/108/108 132/132/132
f 48/89/89 132/132/132 24/91/91
f 24/91/91 132/132/132 55/108/108
